<svg width="270" height="266" viewBox="0 0 270 266" fill="none" xmlns="http://www.w3.org/2000/svg">
<rect x="1.53125" y="1.76172" width="266.468" height="262.288" fill="white" fill-opacity="0.1"/>
<path d="M73.9195 166.201L97.5636 97.5563H106.859L130.503 166.201H123.21L100.758 101.465H103.522L81.2129 166.201H73.9195ZM84.4545 149.564V142.986H119.921V149.564H84.4545ZM164.04 167.631C158.796 167.631 154.156 166.55 150.12 164.389C146.116 162.228 142.97 159.177 140.682 155.237C138.394 151.296 137.249 146.688 137.249 141.412V97.6039L144.305 97.5563V140.507C144.305 144.066 144.908 147.149 146.116 149.755C147.324 152.329 148.897 154.458 150.835 156.142C152.806 157.795 154.951 159.018 157.271 159.813C159.591 160.607 161.847 161.005 164.04 161.005C166.264 161.005 168.537 160.607 170.857 159.813C173.177 159.018 175.306 157.795 177.244 156.142C179.183 154.458 180.756 152.329 181.964 149.755C183.171 147.149 183.775 144.066 183.775 140.507V97.5563H190.83V141.412C190.83 146.688 189.686 151.296 187.398 155.237C185.11 159.146 181.948 162.196 177.912 164.389C173.907 166.55 169.284 167.631 164.04 167.631Z" fill="#E1DAD4"/>
<path d="M111.644 195.611L116.342 181.973H118.189L122.886 195.611H121.437L116.976 182.75H117.526L113.093 195.611H111.644ZM113.737 192.306V190.999H120.784V192.306H113.737ZM128.507 195.867C127.895 195.867 127.358 195.772 126.897 195.582C126.443 195.393 126.055 195.137 125.733 194.815C125.417 194.493 125.161 194.127 124.965 193.717C124.77 193.3 124.628 192.861 124.539 192.4C124.451 191.933 124.407 191.469 124.407 191.008V185.383H125.808V190.601C125.808 191.163 125.862 191.684 125.969 192.164C126.077 192.643 126.247 193.063 126.481 193.423C126.721 193.777 127.027 194.051 127.399 194.247C127.778 194.443 128.236 194.541 128.773 194.541C129.265 194.541 129.698 194.455 130.07 194.285C130.449 194.114 130.765 193.871 131.017 193.556C131.276 193.234 131.472 192.845 131.604 192.391C131.737 191.93 131.803 191.412 131.803 190.838L132.788 191.056C132.788 192.104 132.605 192.984 132.239 193.698C131.873 194.411 131.368 194.951 130.724 195.317C130.08 195.683 129.341 195.867 128.507 195.867ZM131.945 195.611V193.092H131.803V185.383H133.195V195.611H131.945ZM139.811 195.895C138.857 195.895 138.043 195.658 137.367 195.185C136.692 194.705 136.174 194.058 135.814 193.243C135.454 192.429 135.274 191.51 135.274 190.487C135.274 189.471 135.451 188.555 135.805 187.741C136.164 186.926 136.679 186.282 137.348 185.809C138.017 185.335 138.819 185.099 139.754 185.099C140.713 185.099 141.522 185.332 142.178 185.799C142.835 186.267 143.33 186.907 143.665 187.722C144.006 188.53 144.176 189.452 144.176 190.487C144.176 191.504 144.009 192.422 143.675 193.243C143.34 194.058 142.847 194.705 142.197 195.185C141.547 195.658 140.751 195.895 139.811 195.895ZM139.953 194.597C140.679 194.597 141.278 194.421 141.752 194.067C142.226 193.714 142.579 193.227 142.813 192.609C143.046 191.984 143.163 191.276 143.163 190.487C143.163 189.685 143.046 188.978 142.813 188.366C142.579 187.747 142.226 187.264 141.752 186.917C141.285 186.57 140.694 186.396 139.981 186.396C139.249 186.396 138.643 186.576 138.163 186.936C137.683 187.296 137.326 187.785 137.092 188.404C136.865 189.023 136.752 189.717 136.752 190.487C136.752 191.264 136.868 191.965 137.102 192.59C137.342 193.208 137.699 193.698 138.172 194.058C138.646 194.418 139.239 194.597 139.953 194.597ZM143.163 195.611V187.911H143.012V181.973H144.413V195.611H143.163ZM147.26 183.441V181.879H148.652V183.441H147.26ZM147.26 195.611V185.383H148.652V195.611H147.26ZM157.06 195.611C156.485 195.731 155.917 195.778 155.355 195.753C154.799 195.728 154.301 195.608 153.859 195.393C153.423 195.178 153.091 194.844 152.864 194.389C152.681 194.01 152.58 193.628 152.561 193.243C152.549 192.852 152.542 192.407 152.542 191.908V182.542H153.925V191.851C153.925 192.28 153.928 192.64 153.934 192.931C153.947 193.215 154.013 193.467 154.133 193.688C154.361 194.111 154.72 194.364 155.213 194.446C155.712 194.528 156.327 194.509 157.06 194.389V195.611ZM150.354 186.576V185.383H157.06V186.576H150.354Z" fill="#E1DAD4"/>
<rect x="1.53125" y="1.76172" width="266.468" height="262.288" stroke="#E1DAD4" stroke-width="2.08995"/>
<path d="M31.9998 55.9292V37.5465L27.8826 40.0532V36.5134L31.9998 34.0523H35.2357V55.9292H31.9998Z" fill="#E1DAD4"/>
</svg>
