<svg width="69" height="102" viewBox="0 0 69 102" fill="none" xmlns="http://www.w3.org/2000/svg">
<g clip-path="url(#clip0_2_1317)">
<path d="M21.6098 51.1966V100.015L0.867188 89.553V40.0361L21.6098 51.1966Z" fill="white"/>
<path d="M22.3401 101.203L0.137695 90.0057V38.812L22.3401 50.7565V101.203ZM1.5975 89.1019L20.8803 98.8283V51.6353L1.5975 41.2603V89.1019Z" fill="white"/>
<path d="M67.2568 23.0674L45.9594 10.9409L1.42285 38.9565L21.6107 51.1965L67.2568 23.0674Z" fill="white"/>
<path d="M21.6027 52.0474L0 38.9503L45.9592 10.5132L68.7319 23.4796L21.6027 52.0474ZM2.84368 38.9627L21.6182 50.3441L65.7968 23.4936L45.9747 12.2071L2.84368 38.9627Z" fill="white"/>
<path d="M26.6732 92.0153C20.8293 92.0153 15.2427 90.5547 10.9454 87.9042C7.14867 85.5616 4.79004 82.5005 4.79004 79.9122C4.79004 78.4749 5.40217 77.2367 6.05149 75.9255C6.26225 75.4993 6.48075 75.0575 6.68066 74.6033C7.71431 72.2484 18.3266 46.6142 19.1851 44.5408V25.1378C19.1851 22.4873 22.4751 20.4092 26.6732 20.4092C30.8713 20.4092 34.1613 22.4857 34.1613 25.1378V44.533C35.0664 46.6017 45.8166 71.1564 46.8378 73.2703C47.8172 75.3002 48.8106 78.3769 48.8106 80.3321C48.8106 85.7343 39.1405 92.0153 26.6748 92.0153H26.6732ZM26.6732 21.834C23.3832 21.834 20.6031 23.3475 20.6031 25.1378V44.8254L20.5488 44.9561C20.0808 46.0884 9.05634 72.7228 7.97775 75.1773C7.76545 75.6626 7.53919 76.1184 7.32068 76.5586C6.7225 77.7656 6.20646 78.8093 6.20646 79.9122C6.20646 83.6764 13.9766 90.5905 26.6717 90.5905C39.3667 90.5905 47.3895 84.4152 47.3895 80.3321C47.3895 78.6102 46.4457 75.7279 45.5593 73.8909C44.4869 71.6713 33.278 46.0573 32.8007 44.9685L32.7403 44.8316V25.1378C32.7403 23.3475 29.9601 21.834 26.6717 21.834H26.6732Z" fill="#0618DD"/>
<path d="M26.6727 30.2944C22.2343 30.2944 18.7568 28.0296 18.7568 25.1365C18.7568 22.2433 22.2343 19.9785 26.6727 19.9785C31.111 19.9785 34.5885 22.2433 34.5885 25.1365C34.5885 28.0296 31.1125 30.2944 26.6727 30.2944ZM26.6727 22.2619C23.3486 22.2619 21.0302 23.777 21.0302 25.1365C21.0302 26.4959 23.347 28.011 26.6727 28.011C29.9983 28.011 32.3135 26.4959 32.3135 25.1365C32.3135 23.777 29.9967 22.2619 26.6727 22.2619Z" fill="white"/>
<path d="M26.6729 31.0066C21.8363 31.0066 18.0488 28.4292 18.0488 25.1378C18.0488 21.8465 21.8378 19.269 26.6729 19.269C31.5079 19.269 35.2969 21.8465 35.2969 25.1378C35.2969 28.4292 31.5079 31.0066 26.6729 31.0066ZM26.6729 20.6923C22.6995 20.6923 19.4668 22.6864 19.4668 25.1378C19.4668 27.5893 22.6995 29.5834 26.6729 29.5834C30.6463 29.5834 33.8789 27.5893 33.8789 25.1378C33.8789 22.6864 30.6463 20.6923 26.6729 20.6923ZM26.6729 28.7248C23.1706 28.7248 20.3222 27.1164 20.3222 25.1378C20.3222 23.1593 23.1706 21.5509 26.6729 21.5509C30.1752 21.5509 33.0235 23.1608 33.0235 25.1378C33.0235 27.1148 30.1752 28.7248 26.6729 28.7248ZM26.6729 22.9742C23.482 22.9742 21.7402 24.4037 21.7402 25.1378C21.7402 25.872 23.482 27.3015 26.6729 27.3015C29.8637 27.3015 31.6055 25.872 31.6055 25.1378C31.6055 24.4037 29.8652 22.9742 26.6729 22.9742Z" fill="#0618DD"/>
<path d="M26.6217 87.0488C18.8423 87.0488 12.4002 85.0749 10.2089 82.02C9.30545 80.76 9.12569 79.3679 9.65878 77.7658L9.80755 77.3209C11.2054 74.4542 17.804 60.9293 18.2735 59.9681C19.3939 58.4437 22.3012 56.9209 26.3211 56.9209C26.4497 56.9209 26.5799 56.9209 26.71 56.9256C30.0915 56.9302 33.1165 57.7982 34.4306 59.139C34.8211 59.5372 35.0164 59.9432 35.0102 60.3445L35.0071 60.514L42.4487 75.8385L42.4859 75.8899C44.0108 77.9742 44.3765 79.8377 43.5738 81.4305C41.8784 84.7918 35.066 87.0488 26.6233 87.0488H26.6202H26.6217Z" fill="#E41C1C"/>
<path d="M26.3215 57.6317C26.4439 57.6317 26.5695 57.6317 26.695 57.6363H26.7105H26.726C30.3492 57.641 32.9526 58.6443 33.9259 59.6367C34.0994 59.814 34.3055 60.0784 34.3024 60.3335L34.2978 60.6726L34.4466 60.9775L41.7859 76.092L41.8417 76.2071L41.9176 76.3113C43.2906 78.1872 43.6254 79.7567 42.9435 81.1084C41.3907 84.1867 34.679 86.3379 26.6222 86.3379C19.1805 86.3379 12.816 84.4355 10.7859 81.6061C10.025 80.5453 9.8762 79.3631 10.3334 77.9928L10.4666 77.593C11.883 74.689 18.2182 61.7008 18.8815 60.3444C19.6873 59.2976 22.0862 57.6332 26.3215 57.6332M26.3215 56.21C21.8119 56.21 18.804 58.0019 17.6649 59.6009L8.91384 77.5401H8.98822C6.69468 84.42 16.6483 87.7627 26.6222 87.7627C37.7923 87.7627 48.9888 83.5738 43.0597 75.4698L35.7204 60.3553C35.7529 58.0501 31.7051 56.2208 26.7275 56.2146C26.5912 56.2115 26.4548 56.21 26.3215 56.21Z" fill="#E41C1C"/>
<path d="M22.3408 51.708V100.525L68.1497 74.1114V24.5977L22.3408 51.708Z" fill="white"/>
<path d="M21.4898 102V51.2213L69.0003 23.103V74.6062L21.4883 102.001L21.4898 102ZM23.1914 52.1966V99.0489L67.2987 73.6169V26.0942L23.1914 52.1966Z" fill="#0618DD"/>
<path d="M45.7256 68.3581L49.0156 56.1476L51.7415 54.5688L54.9106 63.0368L52.3459 64.5223L51.7678 62.7242L48.7738 64.4601L48.1834 66.9348L45.7256 68.3581ZM49.2573 62.1875L51.2843 61.0132L50.291 57.8042L49.2573 62.1891V62.1875Z" fill="#0618DD"/>
<path d="M55.7695 62.5373V52.2323L59.2067 50.2397C60.1288 49.7062 60.9502 49.4122 61.6708 49.3609C62.3914 49.3096 62.9616 49.5445 63.3832 50.0686C63.8031 50.5928 64.0139 51.4561 64.0139 52.6616C64.0139 53.794 63.8031 54.8611 63.3832 55.8628C62.9616 56.8629 62.3867 57.7636 61.6584 58.5615C60.9285 59.361 60.1071 60.0237 59.1944 60.5525L55.7711 62.5373H55.7695ZM58.1468 58.7497L59.1138 58.1898C59.884 57.7433 60.4837 57.1414 60.913 56.3823C61.3422 55.6232 61.5576 54.8377 61.5576 54.0242C61.5576 53.1998 61.3608 52.6507 60.9672 52.3739C60.5736 52.097 59.9553 52.2028 59.1138 52.6912L58.1468 53.2511V58.7513V58.7497Z" fill="#0618DD"/>
<path d="M27.0312 90.8066V80.5016L29.4085 79.125V87.019L34.913 83.8287V86.2382L27.0312 90.805V90.8066Z" fill="#0618DD"/>
<path d="M35.8447 85.6999L39.1347 73.4894L41.8606 71.9106L45.0297 80.3786L42.465 81.8641L41.887 80.066L38.893 81.8019L38.3025 84.2766L35.8447 85.6999ZM39.3765 79.5293L41.4035 78.355L40.4101 75.146L39.3765 79.5293Z" fill="#0618DD"/>
<path d="M45.959 79.8376V69.5326L51.4883 66.3283C52.1237 65.9597 52.6475 65.7341 53.0597 65.6501C53.4719 65.5661 53.7942 65.5879 54.0267 65.7155C54.2591 65.843 54.4249 66.0343 54.5241 66.291C54.6233 66.5476 54.6713 66.8401 54.6713 67.1698C54.6713 67.5602 54.6001 67.9444 54.4559 68.3193C54.3134 68.6957 54.1398 69.0364 53.9383 69.3444C53.7369 69.6508 53.5463 69.8919 53.3681 70.0677C53.5912 70.0101 53.8423 70.0023 54.1197 70.0428C54.3971 70.0832 54.6388 70.217 54.8449 70.4425C55.051 70.6696 55.1533 71.0398 55.1533 71.5562C55.1533 72.5766 54.8418 73.5053 54.2204 74.3405C53.5974 75.1758 52.6877 75.9411 51.4883 76.6349L45.959 79.8391V79.8376ZM48.282 72.3278L51.2062 70.6339C51.4836 70.4736 51.7316 70.2497 51.9516 69.9619C52.1701 69.6757 52.2802 69.3366 52.2802 68.9446C52.2802 68.5013 52.1655 68.2695 51.9377 68.2462C51.7099 68.2244 51.465 68.2882 51.2062 68.4391L48.282 70.133V72.3262V72.3278ZM48.282 76.5446L51.3798 74.7496C51.5673 74.6407 51.7672 74.4992 51.978 74.3265C52.1887 74.1539 52.367 73.9361 52.5157 73.6748C52.6629 73.4135 52.7373 73.0977 52.7373 72.7275C52.7373 72.3775 52.6629 72.1598 52.5157 72.0758C52.3685 71.9918 52.1887 71.9824 51.978 72.0478C51.7672 72.1131 51.5689 72.2002 51.3798 72.3091L48.282 74.1041V76.5446Z" fill="#0618DD"/>
<path d="M55.9629 72.5982L57.4831 69.8185C57.7481 69.9399 58.0968 69.9881 58.5276 69.9648C58.9584 69.9414 59.4249 69.7828 59.927 69.4919C60.1827 69.3441 60.4291 69.1466 60.6662 68.9024C60.9033 68.6566 61.0211 68.3828 61.0211 68.078C61.0211 67.8229 60.8925 67.6829 60.6368 67.6595C60.3811 67.6362 60.0169 67.6829 59.5427 67.7995L59.0173 67.9271C58.6284 68.0142 58.2425 68.0546 57.8597 68.0453C57.4769 68.0375 57.1593 67.924 56.9082 67.7062C56.6572 67.4884 56.5316 67.1151 56.5316 66.5847C56.5316 65.9765 56.6711 65.3512 56.95 64.7073C57.229 64.0649 57.6443 63.4442 58.1929 62.8454C58.7415 62.2481 59.4094 61.7208 60.1966 61.265C60.8212 60.9026 61.3636 60.663 61.8238 60.5433C62.2825 60.4251 62.6638 60.3753 62.9675 60.3955C63.2712 60.4157 63.4928 60.4639 63.6354 60.5386L62.3569 62.9574C62.0253 62.8951 61.6797 62.8858 61.3202 62.9325C60.9606 62.9791 60.5903 63.1129 60.2121 63.3322C59.9657 63.4753 59.7317 63.6682 59.5086 63.9093C59.2854 64.152 59.1754 64.4102 59.1754 64.6839C59.1754 64.9888 59.3087 65.1319 59.5737 65.1164C59.8387 65.1008 60.175 65.0432 60.5825 64.9437L61.0366 64.827C61.3589 64.7384 61.6828 64.6762 62.0098 64.6388C62.3368 64.6015 62.6374 64.6217 62.9117 64.6979C63.186 64.7741 63.4061 64.9437 63.5719 65.2066C63.7377 65.4694 63.8198 65.8599 63.8198 66.381C63.8198 66.9798 63.6463 67.6144 63.3007 68.2864C62.9551 68.9584 62.4902 69.5946 61.9091 70.1981C61.3264 70.8 60.6802 71.3071 59.9704 71.7193C59.0235 72.2684 58.2301 72.5951 57.5901 72.7008C56.95 72.8066 56.4092 72.7724 55.9629 72.5982Z" fill="#0618DD"/>
<path d="M28.848 18.235C30.3244 18.235 31.5212 17.0337 31.5212 15.5518C31.5212 14.07 30.3244 12.8687 28.848 12.8687C27.3716 12.8687 26.1748 14.07 26.1748 15.5518C26.1748 17.0337 27.3716 18.235 28.848 18.235Z" fill="white"/>
<path d="M28.8478 18.8043C27.061 18.8043 25.6074 17.3453 25.6074 15.5518C25.6074 13.7583 27.061 12.2993 28.8478 12.2993C30.6346 12.2993 32.0882 13.7583 32.0882 15.5518C32.0882 17.3453 30.6346 18.8043 28.8478 18.8043ZM28.8478 13.4379C27.6871 13.4379 26.7418 14.3868 26.7418 15.5518C26.7418 16.7169 27.6871 17.6657 28.8478 17.6657C30.0085 17.6657 30.9539 16.7169 30.9539 15.5518C30.9539 14.3868 30.0085 13.4379 28.8478 13.4379Z" fill="#0618DD"/>
<path d="M22.7731 17.003C25.2474 17.003 27.2533 14.9897 27.2533 12.5061C27.2533 10.0226 25.2474 8.00928 22.7731 8.00928C20.2988 8.00928 18.293 10.0226 18.293 12.5061C18.293 14.9897 20.2988 17.003 22.7731 17.003Z" fill="white"/>
<path d="M22.7729 17.5737C19.9897 17.5737 17.7256 15.3012 17.7256 12.5076C17.7256 9.71395 19.9897 7.44141 22.7729 7.44141C25.5562 7.44141 27.8203 9.71395 27.8203 12.5076C27.8203 15.3012 25.5562 17.5737 22.7729 17.5737ZM22.7729 8.58001C20.6158 8.58001 18.86 10.3424 18.86 12.5076C18.86 14.6728 20.6158 16.4351 22.7729 16.4351C24.9301 16.4351 26.6859 14.6728 26.6859 12.5076C26.6859 10.3424 24.9301 8.58001 22.7729 8.58001Z" fill="#0618DD"/>
<path d="M28.3748 6.11303C29.9 6.11303 31.1364 4.87203 31.1364 3.34118C31.1364 1.81034 29.9 0.569336 28.3748 0.569336C26.8497 0.569336 25.6133 1.81034 25.6133 3.34118C25.6133 4.87203 26.8497 6.11303 28.3748 6.11303Z" fill="white"/>
<path d="M28.3746 6.6823C26.5383 6.6823 25.0459 5.18283 25.0459 3.34115C25.0459 1.49947 26.5383 0 28.3746 0C30.211 0 31.7034 1.49947 31.7034 3.34115C31.7034 5.18283 30.2095 6.6823 28.3746 6.6823ZM28.3746 1.1386C27.1643 1.1386 26.1803 2.12633 26.1803 3.34115C26.1803 4.55597 27.1643 5.5437 28.3746 5.5437C29.5849 5.5437 30.569 4.55597 30.569 3.34115C30.569 2.12633 29.5849 1.1386 28.3746 1.1386Z" fill="#0618DD"/>
</g>
<defs>
<clipPath id="clip0_2_1317">
<rect width="69" height="102" fill="white"/>
</clipPath>
</defs>
</svg>
